<!--
  PLACEHOLDER — not the official TikTok Shop logo.
  TikTok Shop is a registered trademark; do not recreate/generate it via code or AI.
  Replace this file with the official asset from TikTok for Business brand
  resources (https://www.tiktok.com/business/pt-BR/newsroom) or provided
  directly by the client's TikTok account manager, then remove this notice.
-->
<svg xmlns="http://www.w3.org/2000/svg" viewBox="0 0 28 28" fill="none">
  <rect width="28" height="28" rx="8" fill="#1F2937" />
  <path
    d="M9 8.5h10a1 1 0 0 1 1 1v1.2a1 1 0 0 1-1 1h-1.2V19a3.3 3.3 0 1 1-3.3-3.3c.28 0 .55.03.8.08v2.1a1.2 1.2 0 1 0 1.2 1.2v-9.3H9a1 1 0 0 1-1-1V9.5a1 1 0 0 1 1-1Z"
    fill="#F1F5F9"
  />
</svg>
